<svg width="61" height="117" viewBox="0 0 61 117" fill="none" xmlns="http://www.w3.org/2000/svg">
<path d="M53.4343 113.179C53.8887 111.841 55.4525 108.468 56.8817 105.647C60.7047 98.1849 61.0686 95.8113 58.5721 94.8678C57.2742 94.3947 55.3145 96.2869 53.4502 99.7511C53.0097 100.593 52.5316 101.354 52.4511 101.392C52.3706 101.429 52.3757 98.3902 52.4591 94.6779C52.7556 82.5886 51.5463 71.7883 48.6741 60.7829C46.9706 54.1802 40.7792 41.0959 36.4627 34.8774C28.8399 23.9782 21.2175 15.9197 9.80839 6.88177C4.2888 2.49708 1.77407 0.778366 1.19457 0.9013C0.454076 1.09921 0.507553 1.31921 1.28714 2.5725C1.82029 3.40178 4.48992 5.97898 7.20532 8.33894C18.1419 17.9398 27.7894 29.6104 35.5125 42.6181C42.1908 53.9081 45.8647 65.3729 47.6125 80.3796C48.2254 85.482 48.3965 96.4719 47.925 99.1405C47.7551 100.248 47.6961 100.227 46.4661 98.7423C44.5446 96.4045 43.3487 95.8349 41.9802 96.4722C39.5249 97.6156 40.2399 102.622 44.0804 110.237C46.2819 114.649 46.7775 115.398 47.9707 116.066C49.0083 116.612 49.7621 116.653 50.9668 116.189C52.3916 115.673 52.7003 115.284 53.4343 113.179Z" fill="url(#paint0_linear_476_437)"/>
<defs>
<linearGradient id="paint0_linear_476_437" x1="6.31698" y1="-1.52069" x2="59.337" y2="112.327" gradientUnits="userSpaceOnUse">
<stop stop-color="#FCB236" stop-opacity="0"/>
<stop offset="1" stop-color="#F3808E"/>
</linearGradient>
</defs>
</svg>
