<svg width="61" height="117" viewBox="0 0 61 117" fill="none" xmlns="http://www.w3.org/2000/svg">
<path d="M7.66824 113.179C7.21386 111.841 5.65006 108.468 4.2208 105.647C0.397885 98.1849 0.0338916 95.8113 2.53046 94.8678C3.82836 94.3947 5.788 96.2869 7.6523 99.7511C8.09288 100.593 8.57094 101.354 8.65145 101.392C8.73195 101.429 8.72687 98.3902 8.64348 94.6779C8.34694 82.5886 9.55625 71.7883 12.4285 60.7829C14.132 54.1802 20.3234 41.0959 24.6398 34.8774C32.2626 23.9782 39.885 15.9197 51.2941 6.88177C56.8137 2.49708 59.3285 0.778366 59.908 0.9013C60.6485 1.09921 60.595 1.31921 59.8154 2.5725C59.2823 3.40178 56.6126 5.97898 53.8972 8.33894C42.9606 17.9398 33.3132 29.6104 25.5901 42.6181C18.9118 53.9081 15.2379 65.3729 13.49 80.3796C12.8771 85.482 12.706 96.4719 13.1775 99.1405C13.3474 100.248 13.4064 100.227 14.6365 98.7423C16.5579 96.4045 17.7538 95.8349 19.1223 96.4722C21.5776 97.6156 20.8627 102.622 17.0221 110.237C14.8207 114.649 14.325 115.398 13.1319 116.066C12.0942 116.612 11.3405 116.653 10.1357 116.189C8.71097 115.673 8.40219 115.284 7.66824 113.179Z" fill="url(#paint0_linear_476_436)"/>
<defs>
<linearGradient id="paint0_linear_476_436" x1="54.7856" y1="-1.52069" x2="1.76558" y2="112.327" gradientUnits="userSpaceOnUse">
<stop stop-color="#FCB236" stop-opacity="0"/>
<stop offset="1" stop-color="#F3808E"/>
</linearGradient>
</defs>
</svg>
