<svg width="206" height="87" viewBox="0 0 206 87" fill="none" xmlns="http://www.w3.org/2000/svg">
<path d="M32.0993 0.611328C14.2608 0.611328 0 14.8721 0 32.7106C0 38.8797 1.83902 43.6444 5.03223 48.476L28.7221 84.4205C29.441 85.5072 30.6782 86.2093 32.0993 86.2093C33.5203 86.2093 34.7742 85.4905 35.4764 84.4205L59.1663 48.476C62.3595 43.6444 64.1985 38.8797 64.1985 32.7106C64.1985 14.8721 49.9377 0.611328 32.0993 0.611328Z" fill="url(#paint0_linear_334_273)"/>
<path fill-rule="evenodd" clip-rule="evenodd" d="M25.0082 51.0019C23.2827 51.2834 20.9511 49.3268 20.4666 47.6325C19.738 45.0884 23.0057 44.455 25.245 44.0055C25.3654 46.1962 25.8676 49.452 25.0082 51.0019ZM19.564 32.3532L24.3793 30.9277C24.5044 31.7 24.9797 36.5785 24.8027 37.4659C24.793 37.515 24.7586 37.5976 24.7491 37.6365C24.3409 39.2712 10.1684 39.6274 16.9554 50.432C18.2503 52.4936 19.2385 53.4006 20.8576 54.557C23.145 56.1907 28.9847 59.5912 31.3442 55.1064C32.9414 52.0699 32.302 46.1074 32.3116 42.1354C39.6038 39.3503 46.7178 40.8272 45.1758 31.4994L32.067 35.5347L31.6248 28.9789C34.1229 27.3181 46.6058 25.4882 48.9972 21.6142C49.9742 20.0305 50.1651 17.4798 49.5168 15.2719C45.2346 16.4481 26.9891 22.5719 22.7488 24.7381C20.107 26.0875 19.3168 28.8897 19.5642 32.3549L19.564 32.3532Z" fill="#FCF7F5"/>
<path d="M76.1224 51.5469V19.4455H97.0206V23.9698H81.2069V33.6218H95.297V38.1462H81.2069V51.5469H76.1224ZM100.812 51.5469V18.9284H105.681V51.5469H100.812ZM118.354 52.0639C116.774 52.0639 115.381 51.791 114.174 51.2453C112.997 50.6707 112.077 49.8951 111.417 48.9184C110.756 47.913 110.426 46.7353 110.426 45.3851C110.426 44.1212 110.699 42.9865 111.244 41.9811C111.819 40.9757 112.695 40.1283 113.873 39.4388C115.051 38.7494 116.53 38.2611 118.311 37.9738L126.412 36.638V40.473L119.259 41.7226C117.966 41.9524 117.018 42.3689 116.415 42.9721C115.812 43.5467 115.51 44.2935 115.51 45.2128C115.51 46.1033 115.841 46.8358 116.501 47.4103C117.191 47.9561 118.067 48.229 119.13 48.229C120.451 48.229 121.6 47.9418 122.577 47.3672C123.582 46.7927 124.358 46.0315 124.904 45.0835C125.449 44.1068 125.722 43.0296 125.722 41.8518V35.8624C125.722 34.7134 125.291 33.7798 124.43 33.0616C123.597 32.3148 122.476 31.9413 121.069 31.9413C119.776 31.9413 118.641 32.286 117.665 32.9755C116.717 33.6362 116.013 34.4979 115.553 35.5608L111.503 33.5356C111.934 32.3866 112.638 31.3812 113.614 30.5194C114.591 29.6289 115.726 28.9394 117.018 28.4511C118.34 27.9628 119.733 27.7186 121.198 27.7186C123.036 27.7186 124.659 28.0633 126.067 28.7527C127.503 29.4422 128.609 30.4045 129.385 31.6397C130.189 32.8462 130.591 34.2538 130.591 35.8624V51.5469H125.938V47.3241L126.929 47.4534C126.383 48.4014 125.679 49.2201 124.817 49.9095C123.984 50.5989 123.022 51.1303 121.93 51.5038C120.868 51.8772 119.675 52.0639 118.354 52.0639ZM133.958 51.5469L142.102 39.8697L133.958 28.2357H139.689L146.367 37.9738H143.61L150.289 28.2357H156.019L147.832 39.8697L155.976 51.5469H150.245L143.653 41.7656H146.324L139.689 51.5469H133.958ZM157.017 51.5469L165.161 39.8697L157.017 28.2357H162.748L169.427 37.9738H166.669L173.348 28.2357H179.079L170.892 39.8697L179.036 51.5469H173.305L166.712 41.7656H169.384L162.748 51.5469H157.017ZM188.963 52.0639C187.383 52.0639 185.99 51.791 184.783 51.2453C183.606 50.6707 182.686 49.8951 182.026 48.9184C181.365 47.913 181.035 46.7353 181.035 45.3851C181.035 44.1212 181.308 42.9865 181.853 41.9811C182.428 40.9757 183.304 40.1283 184.482 39.4388C185.66 38.7494 187.139 38.2611 188.92 37.9738L197.021 36.638V40.473L189.868 41.7226C188.575 41.9524 187.627 42.3689 187.024 42.9721C186.421 43.5467 186.119 44.2935 186.119 45.2128C186.119 46.1033 186.449 46.8358 187.11 47.4103C187.8 47.9561 188.676 48.229 189.739 48.229C191.06 48.229 192.209 47.9418 193.186 47.3672C194.191 46.7927 194.967 46.0315 195.513 45.0835C196.058 44.1068 196.331 43.0296 196.331 41.8518V35.8624C196.331 34.7134 195.9 33.7798 195.039 33.0616C194.206 32.3148 193.085 31.9413 191.678 31.9413C190.385 31.9413 189.25 32.286 188.274 32.9755C187.326 33.6362 186.622 34.4979 186.162 35.5608L182.112 33.5356C182.543 32.3866 183.247 31.3812 184.223 30.5194C185.2 29.6289 186.335 28.9394 187.627 28.4511C188.949 27.9628 190.342 27.7186 191.807 27.7186C193.645 27.7186 195.268 28.0633 196.676 28.7527C198.112 29.4422 199.218 30.4045 199.994 31.6397C200.798 32.8462 201.2 34.2538 201.2 35.8624V51.5469H196.547V47.3241L197.538 47.4534C196.992 48.4014 196.288 49.2201 195.426 49.9095C194.593 50.5989 193.631 51.1303 192.539 51.5038C191.477 51.8772 190.284 52.0639 188.963 52.0639Z" fill="black"/>
<path d="M76.6909 74.7686V62.6617H77.7472V73.7935H83.1912V74.7686H76.6909ZM91.8728 74.9636C91.0603 74.9636 90.329 74.7686 89.679 74.3785C89.0289 73.9777 88.5143 73.436 88.1352 72.7535C87.756 72.0601 87.5664 71.2855 87.5664 70.4296C87.5664 69.5737 87.7505 68.8099 88.1189 68.1382C88.4873 67.4557 88.9856 66.9194 89.614 66.5294C90.2423 66.1394 90.9465 65.9444 91.7266 65.9444C92.3224 65.9444 92.8587 66.0527 93.3354 66.2694C93.8229 66.4861 94.24 66.7894 94.5867 67.1794C94.9442 67.5586 95.2151 67.9974 95.3992 68.4958C95.5943 68.9833 95.6918 69.4979 95.6918 70.0396C95.6918 70.1479 95.6863 70.2617 95.6755 70.3808C95.6647 70.5 95.6484 70.6246 95.6268 70.7546H88.1352V69.8608H95.0742L94.6355 70.2021C94.7005 69.5737 94.6084 69.0104 94.3592 68.512C94.11 68.0028 93.7525 67.602 93.2866 67.3095C92.8316 67.0061 92.3116 66.8544 91.7266 66.8544C91.1415 66.8544 90.6053 67.0115 90.1177 67.3257C89.6302 67.6291 89.2456 68.0516 88.9639 68.5933C88.6823 69.1241 88.5523 69.7417 88.5739 70.4459C88.5523 71.1501 88.6877 71.773 88.9802 72.3147C89.2727 72.8564 89.6736 73.2843 90.1827 73.5985C90.6919 73.9018 91.2553 74.0535 91.8728 74.0535C92.5012 74.0535 93.0483 73.9073 93.5142 73.6148C93.98 73.3114 94.3592 72.9106 94.6517 72.4122L95.4805 72.851C95.2855 73.2518 95.0092 73.6148 94.6517 73.9398C94.2942 74.2539 93.8771 74.5031 93.4004 74.6873C92.9345 74.8715 92.4254 74.9636 91.8728 74.9636ZM103.091 74.9636C102.549 74.9636 102.067 74.8606 101.645 74.6548C101.222 74.449 100.886 74.1619 100.637 73.7935C100.388 73.4252 100.264 73.0026 100.264 72.5259C100.264 72.1034 100.356 71.708 100.54 71.3396C100.724 70.9713 101.022 70.6571 101.434 70.3971C101.845 70.1263 102.382 69.9367 103.042 69.8283L106.536 69.2433V70.1533L103.302 70.6896C102.566 70.8088 102.046 71.0309 101.742 71.3559C101.439 71.6809 101.287 72.0601 101.287 72.4934C101.287 72.9593 101.461 73.3385 101.807 73.631C102.165 73.9235 102.614 74.0698 103.156 74.0698C103.785 74.0698 104.332 73.9289 104.798 73.6473C105.263 73.3547 105.626 72.9756 105.886 72.5097C106.146 72.033 106.276 71.513 106.276 70.9496V68.8045C106.276 68.2303 106.07 67.7645 105.659 67.407C105.247 67.0494 104.711 66.8707 104.05 66.8707C103.508 66.8707 103.021 67.0061 102.587 67.277C102.154 67.5478 101.824 67.8999 101.596 68.3333L100.719 67.862C100.881 67.5153 101.13 67.1957 101.466 66.9032C101.802 66.6107 102.192 66.3777 102.636 66.2044C103.08 66.0311 103.552 65.9444 104.05 65.9444C104.678 65.9444 105.231 66.069 105.708 66.3182C106.195 66.5565 106.574 66.8924 106.845 67.3257C107.116 67.7482 107.251 68.2412 107.251 68.8045V74.7686H106.276V72.9647L106.39 73.046C106.249 73.3927 106.016 73.7123 105.691 74.0048C105.366 74.2864 104.982 74.5194 104.537 74.7036C104.104 74.8769 103.622 74.9636 103.091 74.9636ZM116.583 74.9636C115.782 74.9636 115.056 74.7686 114.406 74.3785C113.766 73.9777 113.263 73.436 112.894 72.7535C112.526 72.0709 112.342 71.3017 112.342 70.4459C112.342 69.59 112.526 68.8208 112.894 68.1382C113.263 67.4557 113.766 66.9194 114.406 66.5294C115.056 66.1394 115.782 65.9444 116.583 65.9444C117.374 65.9444 118.078 66.134 118.696 66.5132C119.313 66.8815 119.779 67.3799 120.093 68.0082L119.931 68.317V62.4667H120.906V74.7686H119.931V72.5747L120.093 72.8022C119.79 73.4739 119.324 74.0048 118.696 74.3948C118.078 74.774 117.374 74.9636 116.583 74.9636ZM116.616 73.9885C117.244 73.9885 117.802 73.8368 118.29 73.5335C118.788 73.2193 119.183 72.7968 119.476 72.2659C119.768 71.7242 119.915 71.1176 119.915 70.4459C119.915 69.7742 119.768 69.1729 119.476 68.642C119.183 68.1112 118.788 67.6941 118.29 67.3907C117.802 67.0765 117.244 66.9194 116.616 66.9194C115.998 66.9194 115.446 67.0765 114.958 67.3907C114.471 67.6941 114.086 68.1112 113.804 68.642C113.523 69.1729 113.382 69.7742 113.382 70.4459C113.382 71.1176 113.523 71.7242 113.804 72.2659C114.086 72.7968 114.471 73.2193 114.958 73.5335C115.446 73.8368 115.998 73.9885 116.616 73.9885ZM129.273 74.9636C128.472 74.9636 127.768 74.7631 127.161 74.3623C126.554 73.9614 126.11 73.4143 125.828 72.721L126.673 72.3309C126.944 72.8618 127.307 73.2843 127.762 73.5985C128.217 73.9018 128.721 74.0535 129.273 74.0535C129.837 74.0535 130.308 73.9181 130.687 73.6473C131.077 73.3656 131.272 72.9972 131.272 72.5422C131.272 72.2605 131.196 72.0222 131.045 71.8272C130.904 71.6322 130.72 71.4751 130.492 71.3559C130.265 71.2259 130.021 71.1284 129.761 71.0634L128.428 70.6896C127.681 70.4838 127.128 70.1804 126.771 69.7796C126.424 69.3787 126.251 68.9074 126.251 68.3658C126.251 67.8782 126.375 67.4557 126.625 67.0982C126.874 66.7298 127.21 66.4482 127.632 66.2532C128.055 66.0473 128.52 65.9444 129.03 65.9444C129.745 65.9444 130.395 66.1286 130.98 66.4969C131.565 66.8653 131.976 67.3636 132.215 67.992L131.337 68.3983C131.11 67.9107 130.79 67.5315 130.378 67.2607C129.967 66.979 129.512 66.8382 129.013 66.8382C128.493 66.8382 128.071 66.979 127.746 67.2607C127.421 67.5315 127.258 67.8782 127.258 68.3008C127.258 68.5716 127.323 68.7991 127.453 68.9833C127.583 69.1566 127.751 69.3029 127.957 69.4221C128.174 69.5304 128.396 69.6171 128.623 69.6821L130.07 70.1046C130.774 70.2996 131.316 70.6084 131.695 71.0309C132.085 71.4534 132.28 71.9518 132.28 72.5259C132.28 72.9918 132.15 73.4089 131.89 73.7773C131.63 74.1456 131.272 74.4381 130.817 74.6548C130.362 74.8606 129.848 74.9636 129.273 74.9636ZM143.003 74.7686V62.6617H150.397V63.6368H144.059V68.2032H149.828V69.1783H144.059V74.7686H143.003ZM155.125 74.7686V66.1394H156.1V74.7686H155.125ZM155.125 64.4493V62.6617H156.1V64.4493H155.125ZM161.537 74.7686V66.1394H162.512V67.8782L162.269 67.8132C162.464 67.239 162.81 66.784 163.309 66.4482C163.818 66.1123 164.408 65.9444 165.08 65.9444C165.676 65.9444 166.218 66.0798 166.705 66.3507C167.193 66.6215 167.583 67.0007 167.875 67.4882C168.168 67.9649 168.314 68.512 168.314 69.1295V74.7686H167.339V69.4058C167.339 68.8858 167.236 68.4416 167.03 68.0732C166.824 67.6941 166.537 67.407 166.169 67.212C165.811 67.0061 165.4 66.9032 164.934 66.9032C164.446 66.9032 164.018 67.0169 163.65 67.2445C163.282 67.472 163 67.7861 162.805 68.187C162.61 68.5878 162.512 69.0483 162.512 69.5683V74.7686H161.537ZM177.484 74.9636C176.682 74.9636 175.956 74.7686 175.306 74.3785C174.667 73.9777 174.163 73.436 173.795 72.7535C173.426 72.0709 173.242 71.3017 173.242 70.4459C173.242 69.59 173.426 68.8208 173.795 68.1382C174.163 67.4557 174.667 66.9194 175.306 66.5294C175.956 66.1394 176.682 65.9444 177.484 65.9444C178.274 65.9444 178.979 66.134 179.596 66.5132C180.214 66.8815 180.68 67.3799 180.994 68.0082L180.831 68.317V62.4667H181.806V74.7686H180.831V72.5747L180.994 72.8022C180.69 73.4739 180.225 74.0048 179.596 74.3948C178.979 74.774 178.274 74.9636 177.484 74.9636ZM177.516 73.9885C178.144 73.9885 178.702 73.8368 179.19 73.5335C179.688 73.2193 180.084 72.7968 180.376 72.2659C180.669 71.7242 180.815 71.1176 180.815 70.4459C180.815 69.7742 180.669 69.1729 180.376 68.642C180.084 68.1112 179.688 67.6941 179.19 67.3907C178.702 67.0765 178.144 66.9194 177.516 66.9194C176.899 66.9194 176.346 67.0765 175.859 67.3907C175.371 67.6941 174.986 68.1112 174.705 68.642C174.423 69.1729 174.282 69.7742 174.282 70.4459C174.282 71.1176 174.423 71.7242 174.705 72.2659C174.986 72.7968 175.371 73.2193 175.859 73.5335C176.346 73.8368 176.899 73.9885 177.516 73.9885ZM191.214 74.9636C190.401 74.9636 189.67 74.7686 189.02 74.3785C188.37 73.9777 187.855 73.436 187.476 72.7535C187.097 72.0601 186.907 71.2855 186.907 70.4296C186.907 69.5737 187.092 68.8099 187.46 68.1382C187.828 67.4557 188.327 66.9194 188.955 66.5294C189.583 66.1394 190.288 65.9444 191.068 65.9444C191.663 65.9444 192.2 66.0527 192.676 66.2694C193.164 66.4861 193.581 66.7894 193.928 67.1794C194.285 67.5586 194.556 67.9974 194.74 68.4958C194.935 68.9833 195.033 69.4979 195.033 70.0396C195.033 70.1479 195.027 70.2617 195.017 70.3808C195.006 70.5 194.989 70.6246 194.968 70.7546H187.476V69.8608H194.415L193.976 70.2021C194.041 69.5737 193.949 69.0104 193.7 68.512C193.451 68.0028 193.094 67.602 192.628 67.3095C192.173 67.0061 191.653 66.8544 191.068 66.8544C190.483 66.8544 189.946 67.0115 189.459 67.3257C188.971 67.6291 188.587 68.0516 188.305 68.5933C188.023 69.1241 187.893 69.7417 187.915 70.4459C187.893 71.1501 188.029 71.773 188.321 72.3147C188.614 72.8564 189.015 73.2843 189.524 73.5985C190.033 73.9018 190.596 74.0535 191.214 74.0535C191.842 74.0535 192.389 73.9073 192.855 73.6148C193.321 73.3114 193.7 72.9106 193.993 72.4122L194.822 72.851C194.627 73.2518 194.35 73.6148 193.993 73.9398C193.635 74.2539 193.218 74.5031 192.741 74.6873C192.276 74.8715 191.766 74.9636 191.214 74.9636ZM200.121 74.7686V66.1394H201.096V67.7482L200.917 67.602C201.101 67.1144 201.415 66.7298 201.86 66.4482C202.315 66.1665 202.851 66.0256 203.468 66.0256H204.021V67.0007H203.355C202.65 67.0007 202.098 67.2282 201.697 67.6832C201.296 68.1274 201.096 68.7287 201.096 69.4871V74.7686H200.121Z" fill="black"/>
<defs>
<linearGradient id="paint0_linear_334_273" x1="7.89263e-07" y1="14.0643" x2="44.9093" y2="82.3185" gradientUnits="userSpaceOnUse">
<stop offset="0.0216666" stop-color="#78AAC5"/>
<stop offset="0.318199" stop-color="#F3808E"/>
<stop offset="0.693895" stop-color="#FCB236"/>
<stop offset="1" stop-color="#F7EEA6"/>
</linearGradient>
</defs>
</svg>
