<svg width="168" height="70" viewBox="0 0 168 70" fill="none" xmlns="http://www.w3.org/2000/svg">
<path d="M26.1696 0.107178C11.6264 0.107178 0 11.7336 0 26.2767C0 31.3062 1.4993 35.1907 4.10262 39.1298L23.4163 68.4343C24.0024 69.3202 25.011 69.8927 26.1696 69.8927C27.3281 69.8927 28.3504 69.3066 28.9228 68.4343L48.2365 39.1298C50.8398 35.1907 52.3391 31.3062 52.3391 26.2767C52.3391 11.7336 40.7127 0.107178 26.1696 0.107178Z" fill="url(#paint0_linear_40_2047)"/>
<path fill-rule="evenodd" clip-rule="evenodd" d="M20.3885 41.1897C18.9817 41.4192 17.0809 39.8241 16.6858 38.4428C16.0919 36.3687 18.7559 35.8523 20.5816 35.4858C20.6797 37.2718 21.0892 39.9262 20.3885 41.1897ZM15.95 25.986L19.8758 24.8238C19.9777 25.4535 20.3653 29.4308 20.2209 30.1542C20.2131 30.1943 20.185 30.2617 20.1772 30.2934C19.8444 31.6261 8.29001 31.9165 13.8233 40.7251C14.879 42.4059 15.6846 43.1453 17.0046 44.0881C18.8695 45.42 23.6304 48.1924 25.554 44.536C26.8562 42.0605 26.3349 37.1994 26.3427 33.9612C32.2878 31.6906 38.0877 32.8946 36.8305 25.2899L26.1433 28.5798L25.7828 23.2351C27.8194 21.881 37.9964 20.3892 39.946 17.2308C40.7425 15.9397 40.8982 13.8602 40.3696 12.0601C36.8785 13.0191 22.0035 18.0116 18.5465 19.7776C16.3926 20.8778 15.7484 23.1624 15.9502 25.9874L15.95 25.986Z" fill="white"/>
<path d="M62.0604 40.946V14.7747H79.0981V18.4633H66.2057V26.3323H77.693V30.0208H66.2057V40.946H62.0604ZM82.189 40.946V14.3532H86.1586V40.946H82.189ZM96.4907 41.3676C95.2026 41.3676 94.0668 41.1451 93.0831 40.7001C92.1229 40.2317 91.3735 39.5994 90.8349 38.8032C90.2962 37.9835 90.0269 37.0233 90.0269 35.9226C90.0269 34.8921 90.2494 33.967 90.6944 33.1473C91.1627 32.3277 91.877 31.6368 92.8372 31.0747C93.7974 30.5126 95.0035 30.1145 96.4556 29.8803L103.06 28.7913V31.9178L97.2284 32.9366C96.1745 33.1239 95.4017 33.4635 94.9099 33.9553C94.4181 34.4237 94.1722 35.0326 94.1722 35.782C94.1722 36.508 94.4415 37.1052 94.9801 37.5736C95.5422 38.0186 96.2565 38.2411 97.123 38.2411C98.2003 38.2411 99.1371 38.0069 99.9334 37.5385C100.753 37.0701 101.385 36.4495 101.83 35.6767C102.275 34.8804 102.498 34.0022 102.498 33.042V28.159C102.498 27.2222 102.146 26.4611 101.444 25.8756C100.765 25.2667 99.8514 24.9622 98.7038 24.9622C97.65 24.9622 96.7249 25.2433 95.9286 25.8053C95.1558 26.344 94.582 27.0466 94.2073 27.9131L90.9051 26.262C91.2564 25.3252 91.8302 24.5055 92.6265 23.803C93.4227 23.0769 94.3478 22.5149 95.4017 22.1168C96.479 21.7186 97.6148 21.5196 98.8092 21.5196C100.308 21.5196 101.631 21.8006 102.779 22.3627C103.95 22.9247 104.851 23.7093 105.484 24.7163C106.14 25.6999 106.467 26.8475 106.467 28.159V40.946H102.673V37.5034L103.481 37.6088C103.036 38.3816 102.463 39.0491 101.76 39.6111C101.081 40.1732 100.296 40.6065 99.4064 40.9109C98.5399 41.2154 97.568 41.3676 96.4907 41.3676ZM109.212 40.946L115.851 31.426L109.212 21.9411H113.884L119.329 29.8803H117.081L122.526 21.9411H127.198L120.524 31.426L127.163 40.946H122.491L117.116 32.9717H119.294L113.884 40.946H109.212ZM128.012 40.946L134.651 31.426L128.012 21.9411H132.684L138.129 29.8803H135.88L141.326 21.9411H145.998L139.323 31.426L145.963 40.946H141.29L135.916 32.9717H138.094L132.684 40.946H128.012ZM154.056 41.3676C152.768 41.3676 151.632 41.1451 150.649 40.7001C149.688 40.2317 148.939 39.5994 148.4 38.8032C147.862 37.9835 147.592 37.0233 147.592 35.9226C147.592 34.8921 147.815 33.967 148.26 33.1473C148.728 32.3277 149.442 31.6368 150.403 31.0747C151.363 30.5126 152.569 30.1145 154.021 29.8803L160.625 28.7913V31.9178L154.794 32.9366C153.74 33.1239 152.967 33.4635 152.475 33.9553C151.983 34.4237 151.738 35.0326 151.738 35.782C151.738 36.508 152.007 37.1052 152.545 37.5736C153.108 38.0186 153.822 38.2411 154.688 38.2411C155.766 38.2411 156.702 38.0069 157.499 37.5385C158.318 37.0701 158.951 36.4495 159.396 35.6767C159.841 34.8804 160.063 34.0022 160.063 33.042V28.159C160.063 27.2222 159.712 26.4611 159.009 25.8756C158.33 25.2667 157.417 24.9622 156.269 24.9622C155.215 24.9622 154.29 25.2433 153.494 25.8053C152.721 26.344 152.147 27.0466 151.773 27.9131L148.47 26.262C148.822 25.3252 149.396 24.5055 150.192 23.803C150.988 23.0769 151.913 22.5149 152.967 22.1168C154.044 21.7186 155.18 21.5196 156.375 21.5196C157.873 21.5196 159.197 21.8006 160.344 22.3627C161.515 22.9247 162.417 23.7093 163.049 24.7163C163.705 25.6999 164.033 26.8475 164.033 28.159V40.946H160.239V37.5034L161.047 37.6088C160.602 38.3816 160.028 39.0491 159.325 39.6111C158.646 40.1732 157.862 40.6065 156.972 40.9109C156.105 41.2154 155.133 41.3676 154.056 41.3676Z" fill="white"/>
<path d="M62.5237 60.7051V50.8348H63.3849V59.9102H67.8232V60.7051H62.5237ZM74.901 60.8641C74.2386 60.8641 73.6424 60.7051 73.1125 60.3871C72.5825 60.0603 72.163 59.6187 71.8538 59.0622C71.5447 58.497 71.3901 57.8654 71.3901 57.1677C71.3901 56.4699 71.5403 55.8472 71.8406 55.2996C72.1409 54.7431 72.5472 54.3059 73.0595 53.988C73.5718 53.67 74.1459 53.511 74.7818 53.511C75.2676 53.511 75.7048 53.5993 76.0934 53.776C76.4909 53.9526 76.8309 54.1999 77.1136 54.5179C77.4051 54.827 77.6259 55.1848 77.776 55.5911C77.935 55.9885 78.0145 56.4081 78.0145 56.8497C78.0145 56.938 78.0101 57.0308 78.0013 57.1279C77.9924 57.2251 77.9792 57.3266 77.9615 57.4326H71.8538V56.704H77.5111L77.1533 56.9822C77.2063 56.4699 77.1313 56.0106 76.9281 55.6043C76.725 55.1892 76.4335 54.8624 76.0537 54.6239C75.6827 54.3766 75.2588 54.2529 74.7818 54.2529C74.3049 54.2529 73.8676 54.381 73.4702 54.6371C73.0727 54.8845 72.7592 55.2289 72.5295 55.6705C72.2999 56.1033 72.1939 56.6068 72.2115 57.1809C72.1939 57.755 72.3043 58.2629 72.5428 58.7045C72.7812 59.1461 73.108 59.495 73.5232 59.7512C73.9383 59.9985 74.3976 60.1221 74.901 60.1221C75.4133 60.1221 75.8594 60.0029 76.2392 59.7644C76.619 59.5171 76.9281 59.1903 77.1666 58.784L77.8423 59.1417C77.6833 59.4685 77.4581 59.7644 77.1666 60.0294C76.8751 60.2855 76.5351 60.4887 76.1464 60.6388C75.7666 60.789 75.3515 60.8641 74.901 60.8641ZM84.047 60.8641C83.6054 60.8641 83.2124 60.7802 82.8679 60.6123C82.5234 60.4445 82.2496 60.2105 82.0465 59.9102C81.8433 59.6098 81.7418 59.2654 81.7418 58.8767C81.7418 58.5323 81.8168 58.2099 81.967 57.9096C82.1171 57.6093 82.36 57.3531 82.6957 57.1412C83.0313 56.9203 83.4685 56.7658 84.0073 56.6775L86.8558 56.2005V56.9424L84.2193 57.3796C83.6187 57.4768 83.1947 57.6579 82.9474 57.9228C82.7001 58.1878 82.5764 58.497 82.5764 58.8503C82.5764 59.23 82.7177 59.5392 83.0004 59.7777C83.2919 60.0161 83.6584 60.1354 84.1 60.1354C84.6123 60.1354 85.0584 60.0206 85.4382 59.7909C85.818 59.5524 86.1138 59.2433 86.3258 58.8635C86.5378 58.4749 86.6438 58.0509 86.6438 57.5916V55.8428C86.6438 55.3747 86.476 54.9949 86.1403 54.7034C85.8047 54.4119 85.3675 54.2662 84.8287 54.2662C84.3871 54.2662 83.9896 54.3766 83.6363 54.5974C83.283 54.8182 83.0136 55.1053 82.8282 55.4586L82.1127 55.0744C82.2452 54.7917 82.4484 54.5312 82.7222 54.2927C82.996 54.0542 83.3139 53.8643 83.6761 53.723C84.0382 53.5817 84.4224 53.511 84.8287 53.511C85.341 53.511 85.7915 53.6126 86.1801 53.8157C86.5776 54.01 86.8867 54.2838 87.1075 54.6371C87.3283 54.9816 87.4387 55.3835 87.4387 55.8428V60.7051H86.6438V59.2345L86.7365 59.3007C86.6217 59.5833 86.4318 59.8439 86.1668 60.0824C85.9019 60.312 85.5883 60.5019 85.2262 60.6521C84.8729 60.7934 84.4798 60.8641 84.047 60.8641ZM95.0467 60.8641C94.3931 60.8641 93.8013 60.7051 93.2714 60.3871C92.7503 60.0603 92.3396 59.6187 92.0392 59.0622C91.7389 58.5058 91.5888 57.8787 91.5888 57.1809C91.5888 56.4831 91.7389 55.856 92.0392 55.2996C92.3396 54.7431 92.7503 54.3059 93.2714 53.988C93.8013 53.67 94.3931 53.511 95.0467 53.511C95.6915 53.511 96.2656 53.6656 96.7691 53.9747C97.2725 54.275 97.6523 54.6813 97.9084 55.1936L97.776 55.4453V50.6758H98.5709V60.7051H97.776V58.9165L97.9084 59.102C97.6611 59.6496 97.2813 60.0824 96.7691 60.4004C96.2656 60.7095 95.6915 60.8641 95.0467 60.8641ZM95.0732 60.0691C95.5855 60.0691 96.0404 59.9455 96.4378 59.6982C96.8441 59.442 97.1665 59.0976 97.405 58.6648C97.6435 58.2231 97.7627 57.7285 97.7627 57.1809C97.7627 56.6333 97.6435 56.1431 97.405 55.7103C97.1665 55.2775 96.8441 54.9375 96.4378 54.6901C96.0404 54.434 95.5855 54.3059 95.0732 54.3059C94.5698 54.3059 94.1193 54.434 93.7218 54.6901C93.3244 54.9375 93.0108 55.2775 92.7812 55.7103C92.5515 56.1431 92.4367 56.6333 92.4367 57.1809C92.4367 57.7285 92.5515 58.2231 92.7812 58.6648C93.0108 59.0976 93.3244 59.442 93.7218 59.6982C94.1193 59.9455 94.5698 60.0691 95.0732 60.0691ZM105.393 60.8641C104.739 60.8641 104.165 60.7007 103.67 60.3739C103.176 60.0471 102.814 59.601 102.584 59.0357L103.273 58.7178C103.494 59.1506 103.79 59.495 104.161 59.7512C104.531 59.9985 104.942 60.1221 105.393 60.1221C105.852 60.1221 106.236 60.0117 106.545 59.7909C106.863 59.5613 107.022 59.261 107.022 58.89C107.022 58.6604 106.96 58.466 106.837 58.3071C106.722 58.1481 106.572 58.02 106.386 57.9228C106.201 57.8168 106.002 57.7374 105.79 57.6844L104.704 57.3796C104.094 57.2118 103.644 56.9645 103.352 56.6377C103.07 56.3109 102.928 55.9267 102.928 55.4851C102.928 55.0876 103.03 54.7431 103.233 54.4517C103.436 54.1514 103.71 53.9217 104.055 53.7627C104.399 53.5949 104.779 53.511 105.194 53.511C105.777 53.511 106.307 53.6612 106.784 53.9615C107.261 54.2618 107.596 54.6681 107.791 55.1803L107.075 55.5116C106.89 55.1141 106.629 54.805 106.294 54.5842C105.958 54.3545 105.587 54.2397 105.181 54.2397C104.757 54.2397 104.412 54.3545 104.147 54.5842C103.882 54.805 103.75 55.0876 103.75 55.4321C103.75 55.6529 103.803 55.8384 103.909 55.9885C104.015 56.1298 104.152 56.2491 104.32 56.3462C104.496 56.4346 104.677 56.5052 104.863 56.5582L106.042 56.9027C106.616 57.0617 107.058 57.3134 107.367 57.6579C107.685 58.0023 107.844 58.4086 107.844 58.8767C107.844 59.2565 107.738 59.5966 107.526 59.8969C107.314 60.1972 107.022 60.4357 106.651 60.6123C106.28 60.7802 105.861 60.8641 105.393 60.8641ZM116.586 60.7051V50.8348H122.614V51.6297H117.447V55.3526H122.15V56.1475H117.447V60.7051H116.586ZM126.468 60.7051V53.67H127.263V60.7051H126.468ZM126.468 52.2921V50.8348H127.263V52.2921H126.468ZM131.696 60.7051V53.67H132.491V55.0876L132.293 55.0346C132.452 54.5665 132.734 54.1955 133.141 53.9217C133.556 53.6479 134.037 53.511 134.585 53.511C135.07 53.511 135.512 53.6214 135.91 53.8422C136.307 54.063 136.625 54.3722 136.863 54.7696C137.102 55.1583 137.221 55.6043 137.221 56.1078V60.7051H136.426V56.333C136.426 55.909 136.342 55.5469 136.174 55.2466C136.007 54.9375 135.773 54.7034 135.472 54.5444C135.181 54.3766 134.845 54.2927 134.465 54.2927C134.068 54.2927 133.719 54.3854 133.419 54.5709C133.118 54.7564 132.889 55.0125 132.73 55.3393C132.571 55.6661 132.491 56.0415 132.491 56.4655V60.7051H131.696ZM144.697 60.8641C144.043 60.8641 143.452 60.7051 142.922 60.3871C142.401 60.0603 141.99 59.6187 141.689 59.0622C141.389 58.5058 141.239 57.8787 141.239 57.1809C141.239 56.4831 141.389 55.856 141.689 55.2996C141.99 54.7431 142.401 54.3059 142.922 53.988C143.452 53.67 144.043 53.511 144.697 53.511C145.342 53.511 145.916 53.6656 146.419 53.9747C146.923 54.275 147.303 54.6813 147.559 55.1936L147.426 55.4453V50.6758H148.221V60.7051H147.426V58.9165L147.559 59.102C147.311 59.6496 146.932 60.0824 146.419 60.4004C145.916 60.7095 145.342 60.8641 144.697 60.8641ZM144.723 60.0691C145.236 60.0691 145.691 59.9455 146.088 59.6982C146.494 59.442 146.817 59.0976 147.055 58.6648C147.294 58.2231 147.413 57.7285 147.413 57.1809C147.413 56.6333 147.294 56.1431 147.055 55.7103C146.817 55.2775 146.494 54.9375 146.088 54.6901C145.691 54.434 145.236 54.3059 144.723 54.3059C144.22 54.3059 143.77 54.434 143.372 54.6901C142.975 54.9375 142.661 55.2775 142.431 55.7103C142.202 56.1431 142.087 56.6333 142.087 57.1809C142.087 57.7285 142.202 58.2231 142.431 58.6648C142.661 59.0976 142.975 59.442 143.372 59.6982C143.77 59.9455 144.22 60.0691 144.723 60.0691ZM155.891 60.8641C155.228 60.8641 154.632 60.7051 154.102 60.3871C153.572 60.0603 153.153 59.6187 152.844 59.0622C152.534 58.497 152.38 57.8654 152.38 57.1677C152.38 56.4699 152.53 55.8472 152.83 55.2996C153.131 54.7431 153.537 54.3059 154.049 53.988C154.562 53.67 155.136 53.511 155.772 53.511C156.257 53.511 156.695 53.5993 157.083 53.776C157.481 53.9526 157.821 54.1999 158.103 54.5179C158.395 54.827 158.616 55.1848 158.766 55.5911C158.925 55.9885 159.004 56.4081 159.004 56.8497C159.004 56.938 159 57.0308 158.991 57.1279C158.982 57.2251 158.969 57.3266 158.951 57.4326H152.844V56.704H158.501L158.143 56.9822C158.196 56.4699 158.121 56.0106 157.918 55.6043C157.715 55.1892 157.423 54.8624 157.043 54.6239C156.672 54.3766 156.249 54.2529 155.772 54.2529C155.295 54.2529 154.857 54.381 154.46 54.6371C154.062 54.8845 153.749 55.2289 153.519 55.6705C153.29 56.1033 153.184 56.6068 153.201 57.1809C153.184 57.755 153.294 58.2629 153.533 58.7045C153.771 59.1461 154.098 59.495 154.513 59.7512C154.928 59.9985 155.387 60.1221 155.891 60.1221C156.403 60.1221 156.849 60.0029 157.229 59.7644C157.609 59.5171 157.918 59.1903 158.156 58.784L158.832 59.1417C158.673 59.4685 158.448 59.7644 158.156 60.0294C157.865 60.2855 157.525 60.4887 157.136 60.6388C156.756 60.789 156.341 60.8641 155.891 60.8641ZM163.152 60.7051V53.67H163.947V54.9816L163.802 54.8624C163.952 54.4649 164.208 54.1514 164.57 53.9217C164.941 53.6921 165.378 53.5772 165.882 53.5772H166.332V54.3722H165.789C165.215 54.3722 164.764 54.5577 164.438 54.9286C164.111 55.2908 163.947 55.781 163.947 56.3992V60.7051H163.152Z" fill="white"/>
<defs>
<linearGradient id="paint0_linear_40_2047" x1="6.43462e-07" y1="11.075" x2="36.6132" y2="66.7206" gradientUnits="userSpaceOnUse">
<stop offset="0.0216666" stop-color="#78AAC5"/>
<stop offset="0.318199" stop-color="#F3808E"/>
<stop offset="0.693895" stop-color="#FCB236"/>
<stop offset="1" stop-color="#F7EEA6"/>
</linearGradient>
</defs>
</svg>
